Love for All and Sharing is the first step to solving all the problems of humanity.

Websites I want to share.

    
http://www.shareintl.org/

    
http://www.lightmiddleway.com


Thank you very much

No credit for me...credit to EVERYONE for sharing
 
http://thepiratebay.org/user/raymondhome/

Format : AVI
Format/Info : Audio Video Interleave
Duration : 1h 54mn
Overall bit rate : 800 Kbps
Writing library : VirtualDub build 32661/release

Video
ID : 0
Format : MPEG-4 Visual
Format profile : AdvancedSimple@L5
Format settings, BVOP : Yes
Format settings, QPel : No
Format settings, GMC : No warppoints
Format settings, Matrix : Default (H.263)
Codec ID : XVID
Codec ID/Hint : XviD
Duration : 1h 54mn
Bit rate : 663 Kbps
Width : 624 pixels
Height : 336 pixels
Display aspect ratio : 1.857
Frame rate : 24.000 fps
Original frame rate : 25.000 fps
Resolution : 24 bits
Colorimetry : 4:2:0
Scan type : Progressive
Bits/(Pixel*Frame) : 0.132
Stream size : 544 MiB (83%)
Writing library : XviD 1.2.1 (UTC 2008-12-04)

Audio
ID : 1
Format : MPEG Audio
Format version : Version 1
Format profile : Layer 3
Codec ID : 55
Codec ID/Hint : MP3
Duration : 1h 54mn
Bit rate mode : Constant
Bit rate : 128 Kbps
Channel(s) : 2 channels
Sampling rate : 48.0 KHz
Resolution : 16 bits
Video delay : 12ms
Stream size : 105 MiB (16%)
Alignment : Split accross interleaves
Interleave, duration : 42 ms (1.00 video frame)
Interleave, preload duration : 500 ms

Here's the dvdscr with english cam audio...ive seen another english copy floatin around but its way outta sync...so enjoy the one that is syncd correctly...enjoy

credit to hndofgod & redchaos2354 & to all the people who made it possible for me to share this with everyone

*****help what we can with haiti...the world is ONE big family*****